<svg width="220" height="132" viewBox="0 0 220 132" fill="none" xmlns="http://www.w3.org/2000/svg">
<path d="M99.3333 58.6667C100.806 58.6667 102 57.4728 102 56C102 54.5272 100.806 53.3333 99.3333 53.3333C97.8605 53.3333 96.6666 54.5272 96.6666 56C96.6666 57.4728 97.8605 58.6667 99.3333 58.6667Z" stroke="#301E01" stroke-width="5" stroke-linecap="round" stroke-linejoin="round"/>
<path d="M128.667 58.6667C130.139 58.6667 131.333 57.4728 131.333 56C131.333 54.5272 130.139 53.3333 128.667 53.3333C127.194 53.3333 126 54.5272 126 56C126 57.4728 127.194 58.6667 128.667 58.6667Z" stroke="#301E01" stroke-width="5" stroke-linecap="round" stroke-linejoin="round"/>
<path d="M83.4667 5.46666H88.8L95.8933 38.5867C96.1536 39.7996 96.8285 40.8839 97.8019 41.6529C98.7753 42.422 99.9864 42.8276 101.227 42.8H127.307C128.52 42.798 129.697 42.3821 130.643 41.6209C131.588 40.8597 132.246 39.7987 132.507 38.6133L136.907 18.8H91.6533" stroke="#301E01" stroke-width="5" stroke-linecap="round" stroke-linejoin="round"/>
<path d="M54.5676 79.1847H52.3517C52.2665 78.7112 52.1079 78.2945 51.8759 77.9347C51.6439 77.5748 51.3598 77.2694 51.0236 77.0185C50.6874 76.7675 50.311 76.5781 49.8944 76.4503C49.4824 76.3224 49.0444 76.2585 48.5804 76.2585C47.7424 76.2585 46.9919 76.4692 46.329 76.8906C45.6709 77.312 45.15 77.9299 44.7665 78.7443C44.3877 79.5587 44.1983 80.553 44.1983 81.7273C44.1983 82.911 44.3877 83.91 44.7665 84.7244C45.15 85.5388 45.6732 86.1544 46.3361 86.571C46.999 86.9877 47.7447 87.196 48.5733 87.196C49.0326 87.196 49.4682 87.1345 49.8801 87.0114C50.2968 86.8835 50.6732 86.6965 51.0094 86.4503C51.3456 86.2041 51.6297 85.9034 51.8617 85.5483C52.0984 85.1884 52.2618 84.7765 52.3517 84.3125L54.5676 84.3196C54.4493 85.0346 54.2196 85.6927 53.8787 86.294C53.5426 86.8906 53.1093 87.4067 52.579 87.8423C52.0534 88.2732 51.4521 88.607 50.775 88.8438C50.098 89.0805 49.3593 89.1989 48.5591 89.1989C47.2997 89.1989 46.1775 88.9006 45.1926 88.304C44.2078 87.7027 43.4313 86.8433 42.8631 85.7259C42.2997 84.6084 42.0179 83.2756 42.0179 81.7273C42.0179 80.1742 42.302 78.8414 42.8702 77.7287C43.4384 76.6113 44.2149 75.7543 45.1998 75.1577C46.1846 74.5563 47.3044 74.2557 48.5591 74.2557C49.3309 74.2557 50.0506 74.367 50.7182 74.5895C51.3906 74.8073 51.9943 75.1293 52.5293 75.5554C53.0643 75.9768 53.507 76.4929 53.8574 77.1037C54.2078 77.7098 54.4445 78.4034 54.5676 79.1847ZM60.198 89.2415C59.5067 89.2415 58.8817 89.1136 58.323 88.858C57.7643 88.5975 57.3216 88.2211 56.9949 87.7287C56.6729 87.2363 56.5119 86.6326 56.5119 85.9176C56.5119 85.3021 56.6303 84.7955 56.867 84.3977C57.1038 84 57.4234 83.6851 57.8258 83.4531C58.2283 83.2211 58.6781 83.0459 59.1752 82.9276C59.6724 82.8092 60.179 82.7192 60.6951 82.6577C61.3485 82.5819 61.8788 82.5204 62.286 82.473C62.6932 82.4209 62.9892 82.3381 63.1738 82.2244C63.3585 82.1108 63.4508 81.9261 63.4508 81.6705V81.6207C63.4508 81.0005 63.2756 80.5199 62.9252 80.179C62.5796 79.8381 62.0635 79.6676 61.377 79.6676C60.662 79.6676 60.0985 79.8262 59.6866 80.1435C59.2794 80.456 58.9977 80.804 58.8414 81.1875L56.8457 80.733C57.0824 80.0701 57.4281 79.535 57.8826 79.1278C58.3419 78.7159 58.8699 78.4176 59.4664 78.233C60.063 78.0436 60.6904 77.9489 61.3485 77.9489C61.7842 77.9489 62.2458 78.0009 62.7335 78.1051C63.2259 78.2045 63.6852 78.3892 64.1113 78.6591C64.5422 78.929 64.8949 79.3149 65.1696 79.8168C65.4442 80.3139 65.5815 80.9602 65.5815 81.7557V89H63.5076V87.5085H63.4224C63.2851 87.7831 63.0791 88.053 62.8045 88.3182C62.5299 88.5833 62.1771 88.8035 61.7463 88.9787C61.3154 89.1539 60.7993 89.2415 60.198 89.2415ZM60.6596 87.5369C61.2467 87.5369 61.7486 87.4209 62.1653 87.1889C62.5867 86.9569 62.9063 86.6539 63.1241 86.2798C63.3467 85.901 63.4579 85.4962 63.4579 85.0653V83.6591C63.3822 83.7348 63.2354 83.8059 63.0176 83.8722C62.8045 83.9337 62.5607 83.9882 62.286 84.0355C62.0114 84.0781 61.7439 84.1184 61.4835 84.1562C61.2231 84.1894 61.0053 84.2178 60.8301 84.2415C60.4181 84.2936 60.0417 84.3812 59.7008 84.5043C59.3646 84.6274 59.0948 84.8049 58.8912 85.0369C58.6923 85.2642 58.5929 85.5672 58.5929 85.946C58.5929 86.4716 58.787 86.8693 59.1752 87.1392C59.5635 87.4044 60.0583 87.5369 60.6596 87.5369ZM68.41 89V78.0909H70.4625V79.8239H70.5762C70.775 79.2367 71.1254 78.7751 71.6273 78.4389C72.1339 78.098 72.7069 77.9276 73.3461 77.9276C73.4786 77.9276 73.6349 77.9323 73.8148 77.9418C73.9995 77.9512 74.1439 77.9631 74.248 77.9773V80.0085C74.1628 79.9848 74.0113 79.9588 73.7935 79.9304C73.5757 79.8973 73.3579 79.8807 73.1401 79.8807C72.6382 79.8807 72.1908 79.9872 71.7978 80.2003C71.4095 80.4086 71.1017 80.6998 70.8745 81.0739C70.6472 81.4432 70.5336 81.8646 70.5336 82.3381V89H68.41ZM76.0858 89V78.0909H78.1383V79.8239H78.252C78.4508 79.2367 78.8012 78.7751 79.3031 78.4389C79.8097 78.098 80.3826 77.9276 81.0218 77.9276C81.1544 77.9276 81.3107 77.9323 81.4906 77.9418C81.6752 77.9512 81.8197 77.9631 81.9238 77.9773V80.0085C81.8386 79.9848 81.6871 79.9588 81.4693 79.9304C81.2515 79.8973 81.0337 79.8807 80.8159 79.8807C80.314 79.8807 79.8665 79.9872 79.4735 80.2003C79.0853 80.4086 78.7775 80.6998 78.5502 81.0739C78.323 81.4432 78.2093 81.8646 78.2093 82.3381V89H76.0858ZM83.7615 89V78.0909H85.8851V89H83.7615ZM84.834 76.4077C84.4647 76.4077 84.1474 76.2846 83.8823 76.0384C83.6219 75.7874 83.4917 75.4891 83.4917 75.1435C83.4917 74.7931 83.6219 74.4948 83.8823 74.2486C84.1474 73.9976 84.4647 73.8722 84.834 73.8722C85.2033 73.8722 85.5182 73.9976 85.7786 74.2486C86.0437 74.4948 86.1763 74.7931 86.1763 75.1435C86.1763 75.4891 86.0437 75.7874 85.7786 76.0384C85.5182 76.2846 85.2033 76.4077 84.834 76.4077ZM90.8656 82.5227V89L88.742 89V78.0909H90.7804V79.8665H90.9153C91.1663 79.2888 91.5592 78.8248 92.0943 78.4744C92.6341 78.1241 93.3135 77.9489 94.1326 77.9489C94.876 77.9489 95.527 78.1051 96.0858 78.4176C96.6445 78.7254 97.0777 79.1847 97.3855 79.7955C97.6932 80.4062 97.8471 81.1615 97.8471 82.0611V89H95.7235V82.3168C95.7235 81.526 95.5176 80.9081 95.1056 80.4631C94.6937 80.0133 94.1279 79.7884 93.4082 79.7884C92.9158 79.7884 92.4778 79.8949 92.0943 80.108C91.7155 80.321 91.4148 80.6335 91.1923 81.0455C90.9745 81.4527 90.8656 81.9451 90.8656 82.5227ZM102.819 82.5227V89H100.695V74.4545H102.79V79.8665H102.925C103.181 79.2794 103.572 78.813 104.097 78.4673C104.623 78.1217 105.309 77.9489 106.157 77.9489C106.905 77.9489 107.558 78.1027 108.117 78.4105C108.68 78.7183 109.116 79.1776 109.424 79.7884C109.736 80.3944 109.893 81.152 109.893 82.0611V89H107.769V82.3168C107.769 81.5166 107.563 80.8963 107.151 80.456C106.739 80.0109 106.166 79.7884 105.432 79.7884C104.93 79.7884 104.481 79.8949 104.083 80.108C103.69 80.321 103.38 80.6335 103.153 81.0455C102.93 81.4527 102.819 81.9451 102.819 82.5227ZM117.322 89.2202C116.299 89.2202 115.406 88.9858 114.644 88.517C113.882 88.0483 113.29 87.3925 112.868 86.5497C112.447 85.7069 112.236 84.7221 112.236 83.5952C112.236 82.4635 112.447 81.474 112.868 80.6264C113.29 79.7789 113.882 79.1207 114.644 78.652C115.406 78.1832 116.299 77.9489 117.322 77.9489C118.344 77.9489 119.237 78.1832 119.999 78.652C120.761 79.1207 121.353 79.7789 121.775 80.6264C122.196 81.474 122.407 82.4635 122.407 83.5952C122.407 84.7221 122.196 85.7069 121.775 86.5497C121.353 87.3925 120.761 88.0483 119.999 88.517C119.237 88.9858 118.344 89.2202 117.322 89.2202ZM117.329 87.4375C117.992 87.4375 118.541 87.2623 118.976 86.9119C119.412 86.5616 119.734 86.0952 119.942 85.5128C120.155 84.9304 120.262 84.2888 120.262 83.5881C120.262 82.892 120.155 82.2528 119.942 81.6705C119.734 81.0833 119.412 80.6122 118.976 80.2571C118.541 79.902 117.992 79.7244 117.329 79.7244C116.661 79.7244 116.107 79.902 115.667 80.2571C115.231 80.6122 114.907 81.0833 114.694 81.6705C114.485 82.2528 114.381 82.892 114.381 83.5881C114.381 84.2888 114.485 84.9304 114.694 85.5128C114.907 86.0952 115.231 86.5616 115.667 86.9119C116.107 87.2623 116.661 87.4375 117.329 87.4375ZM139.403 78.0909L135.447 89H133.174L129.211 78.0909H131.491L134.253 86.4858H134.367L137.123 78.0909H139.403ZM144.26 89.2415C143.569 89.2415 142.944 89.1136 142.385 88.858C141.827 88.5975 141.384 88.2211 141.057 87.7287C140.735 87.2363 140.574 86.6326 140.574 85.9176C140.574 85.3021 140.693 84.7955 140.93 84.3977C141.166 84 141.486 83.6851 141.888 83.4531C142.291 83.2211 142.741 83.0459 143.238 82.9276C143.735 82.8092 144.242 82.7192 144.758 82.6577C145.411 82.5819 145.941 82.5204 146.349 82.473C146.756 82.4209 147.052 82.3381 147.236 82.2244C147.421 82.1108 147.513 81.9261 147.513 81.6705V81.6207C147.513 81.0005 147.338 80.5199 146.988 80.179C146.642 79.8381 146.126 79.6676 145.439 79.6676C144.724 79.6676 144.161 79.8262 143.749 80.1435C143.342 80.456 143.06 80.804 142.904 81.1875L140.908 80.733C141.145 80.0701 141.491 79.535 141.945 79.1278C142.404 78.7159 142.932 78.4176 143.529 78.233C144.126 78.0436 144.753 77.9489 145.411 77.9489C145.847 77.9489 146.308 78.0009 146.796 78.1051C147.288 78.2045 147.748 78.3892 148.174 78.6591C148.605 78.929 148.957 79.3149 149.232 79.8168C149.507 80.3139 149.644 80.9602 149.644 81.7557V89H147.57V87.5085H147.485C147.348 87.7831 147.142 88.053 146.867 88.3182C146.592 88.5833 146.24 88.8035 145.809 88.9787C145.378 89.1539 144.862 89.2415 144.26 89.2415ZM144.722 87.5369C145.309 87.5369 145.811 87.4209 146.228 87.1889C146.649 86.9569 146.969 86.6539 147.187 86.2798C147.409 85.901 147.52 85.4962 147.52 85.0653V83.6591C147.445 83.7348 147.298 83.8059 147.08 83.8722C146.867 83.9337 146.623 83.9882 146.349 84.0355C146.074 84.0781 145.806 84.1184 145.546 84.1562C145.286 84.1894 145.068 84.2178 144.893 84.2415C144.481 84.2936 144.104 84.3812 143.763 84.5043C143.427 84.6274 143.157 84.8049 142.954 85.0369C142.755 85.2642 142.655 85.5672 142.655 85.946C142.655 86.4716 142.849 86.8693 143.238 87.1392C143.626 87.4044 144.121 87.5369 144.722 87.5369ZM152.245 89V87.544L158.154 80.0369V79.9375H152.437V78.0909H160.803V79.6392L155.122 87.054V87.1534H161.002V89H152.245ZM163.508 89V78.0909H165.631V89H163.508ZM164.58 76.4077C164.211 76.4077 163.894 76.2846 163.628 76.0384C163.368 75.7874 163.238 75.4891 163.238 75.1435C163.238 74.7931 163.368 74.4948 163.628 74.2486C163.894 73.9976 164.211 73.8722 164.58 73.8722C164.949 73.8722 165.264 73.9976 165.525 74.2486C165.79 74.4948 165.922 74.7931 165.922 75.1435C165.922 75.4891 165.79 75.7874 165.525 76.0384C165.264 76.2846 164.949 76.4077 164.58 76.4077ZM173.083 89.2202C172.061 89.2202 171.168 88.9858 170.406 88.517C169.643 88.0483 169.052 87.3925 168.63 86.5497C168.209 85.7069 167.998 84.7221 167.998 83.5952C167.998 82.4635 168.209 81.474 168.63 80.6264C169.052 79.7789 169.643 79.1207 170.406 78.652C171.168 78.1832 172.061 77.9489 173.083 77.9489C174.106 77.9489 174.999 78.1832 175.761 78.652C176.523 79.1207 177.115 79.7789 177.536 80.6264C177.958 81.474 178.169 82.4635 178.169 83.5952C178.169 84.7221 177.958 85.7069 177.536 86.5497C177.115 87.3925 176.523 88.0483 175.761 88.517C174.999 88.9858 174.106 89.2202 173.083 89.2202ZM173.09 87.4375C173.753 87.4375 174.302 87.2623 174.738 86.9119C175.174 86.5616 175.496 86.0952 175.704 85.5128C175.917 84.9304 176.024 84.2888 176.024 83.5881C176.024 82.892 175.917 82.2528 175.704 81.6705C175.496 81.0833 175.174 80.6122 174.738 80.2571C174.302 79.902 173.753 79.7244 173.09 79.7244C172.423 79.7244 171.869 79.902 171.428 80.2571C170.993 80.6122 170.669 81.0833 170.455 81.6705C170.247 82.2528 170.143 82.892 170.143 83.5881C170.143 84.2888 170.247 84.9304 170.455 85.5128C170.669 86.0952 170.993 86.5616 171.428 86.9119C171.869 87.2623 172.423 87.4375 173.09 87.4375Z" fill="#301E01"/>
<path d="M9.54834 99.0909L12.9574 108.706H13.0533L16.4624 99.0909H17.5064L13.538 110H12.4727L8.50431 99.0909H9.54834ZM21.5973 110.17C20.8907 110.17 20.2657 109.991 19.7223 109.632C19.1826 109.274 18.76 108.778 18.4546 108.146C18.1492 107.511 17.9965 106.777 17.9965 105.946C17.9965 105.108 18.1492 104.371 18.4546 103.736C18.76 103.097 19.1826 102.599 19.7223 102.244C20.2657 101.886 20.8907 101.706 21.5973 101.706C22.304 101.706 22.9272 101.886 23.467 102.244C24.0068 102.603 24.4294 103.1 24.7348 103.736C25.0437 104.371 25.1982 105.108 25.1982 105.946C25.1982 106.777 25.0455 107.511 24.7401 108.146C24.4347 108.778 24.0103 109.274 23.467 109.632C22.9272 109.991 22.304 110.17 21.5973 110.17ZM21.5973 109.302C22.1655 109.302 22.6467 109.15 23.0409 108.844C23.4351 108.539 23.7334 108.132 23.9358 107.624C24.1417 107.116 24.2447 106.557 24.2447 105.946C24.2447 105.336 24.1417 104.775 23.9358 104.263C23.7334 103.752 23.4351 103.342 23.0409 103.033C22.6467 102.724 22.1655 102.569 21.5973 102.569C21.0327 102.569 20.5515 102.724 20.1538 103.033C19.7596 103.342 19.4596 103.752 19.2536 104.263C19.0512 104.775 18.95 105.336 18.95 105.946C18.95 106.557 19.0512 107.116 19.2536 107.624C19.4596 108.132 19.7596 108.539 20.1538 108.844C20.548 109.15 21.0292 109.302 21.5973 109.302ZM30.4756 110.17C29.7441 110.17 29.1067 109.988 28.5633 109.622C28.0236 109.256 27.6045 108.755 27.3062 108.12C27.0079 107.484 26.8588 106.76 26.8588 105.946C26.8588 105.126 27.0097 104.396 27.3116 103.757C27.617 103.118 28.0396 102.617 28.5793 102.255C29.1191 101.889 29.7459 101.706 30.4597 101.706C31.0065 101.706 31.5019 101.813 31.9458 102.026C32.3897 102.235 32.7555 102.532 33.0431 102.915C33.3343 103.295 33.5172 103.739 33.5918 104.247H32.6329C32.5335 103.786 32.2938 103.391 31.9138 103.065C31.5374 102.734 31.058 102.569 30.4756 102.569C29.9536 102.569 29.492 102.711 29.0907 102.995C28.6894 103.276 28.3751 103.668 28.1479 104.173C27.9241 104.673 27.8123 105.254 27.8123 105.914C27.8123 106.578 27.9224 107.166 28.1425 107.678C28.3627 108.185 28.6717 108.583 29.0694 108.871C29.4707 109.158 29.9394 109.302 30.4756 109.302C30.8378 109.302 31.1681 109.235 31.4664 109.1C31.7682 108.961 32.0204 108.766 32.2228 108.514C32.4288 108.262 32.5672 107.962 32.6383 107.614H33.5971C33.5261 108.107 33.3503 108.548 33.0697 108.935C32.7927 109.318 32.4323 109.62 31.9884 109.84C31.5481 110.06 31.0438 110.17 30.4756 110.17ZM38.9371 110.17C38.1736 110.17 37.5131 109.993 36.9556 109.638C36.398 109.279 35.9666 108.784 35.6612 108.152C35.3593 107.516 35.2084 106.784 35.2084 105.957C35.2084 105.133 35.3593 104.402 35.6612 103.762C35.9666 103.12 36.3874 102.617 36.9236 102.255C37.4634 101.889 38.0866 101.706 38.7933 101.706C39.2372 101.706 39.6651 101.788 40.077 101.951C40.4889 102.111 40.8583 102.358 41.185 102.692C41.5152 103.022 41.7762 103.439 41.968 103.944C42.1598 104.444 42.2556 105.037 42.2556 105.723V106.191H35.8636V105.355H41.2862C41.2862 104.83 41.1796 104.357 40.9666 103.938C40.7571 103.516 40.4641 103.182 40.0877 102.937C39.7148 102.692 39.2833 102.569 38.7933 102.569C38.2748 102.569 37.8185 102.708 37.4243 102.985C37.0301 103.262 36.7212 103.627 36.4975 104.082C36.2773 104.537 36.1654 105.034 36.1619 105.574V106.074C36.1619 106.724 36.2737 107.292 36.4975 107.779C36.7247 108.262 37.0461 108.636 37.4616 108.903C37.8771 109.169 38.3689 109.302 38.9371 109.302C39.3242 109.302 39.6633 109.242 39.9545 109.121C40.2492 109 40.496 108.839 40.6949 108.636C40.8973 108.43 41.05 108.205 41.153 107.96L42.0532 108.253C41.9289 108.597 41.7247 108.915 41.4407 109.206C41.1601 109.498 40.8085 109.732 40.386 109.909C39.9669 110.083 39.484 110.17 38.9371 110.17ZM40.0184 100.881L38.7453 99.3413L37.4723 100.881H36.5454V100.811L38.3458 98.6648H39.1448L40.9453 100.811V100.881H40.0184ZM49.5119 104.886V110H48.5638V101.818H49.4853V103.102H49.5705C49.7623 102.683 50.0606 102.347 50.4654 102.095C50.8738 101.839 51.3781 101.712 51.9782 101.712C52.5286 101.712 53.0116 101.827 53.4271 102.058C53.8461 102.285 54.171 102.621 54.4019 103.065C54.6362 103.509 54.7534 104.054 54.7534 104.7V110H53.8053V104.759C53.8053 104.087 53.6171 103.556 53.2406 103.166C52.8678 102.775 52.3671 102.58 51.7385 102.58C51.3088 102.58 50.9271 102.672 50.5933 102.857C50.2595 103.042 49.9949 103.308 49.7996 103.656C49.6078 104 49.5119 104.411 49.5119 104.886ZM59.5355 110.186C59.0419 110.186 58.5909 110.091 58.1825 109.899C57.7741 109.703 57.4492 109.423 57.2077 109.057C56.9662 108.688 56.8455 108.24 56.8455 107.715C56.8455 107.31 56.9218 106.969 57.0745 106.692C57.2272 106.415 57.4438 106.188 57.7244 106.01C58.0049 105.833 58.337 105.692 58.7205 105.589C59.104 105.487 59.5266 105.407 59.9882 105.35C60.4463 105.293 60.8334 105.243 61.1495 105.201C61.4691 105.158 61.7123 105.091 61.8792 104.998C62.0461 104.906 62.1296 104.757 62.1296 104.551V104.359C62.1296 103.801 61.9627 103.363 61.6289 103.043C61.2986 102.72 60.8228 102.559 60.2013 102.559C59.6118 102.559 59.1306 102.688 58.7578 102.947C58.3884 103.207 58.1292 103.512 57.9801 103.864L57.0799 103.539C57.2645 103.091 57.5202 102.734 57.8469 102.468C58.1736 102.198 58.5394 102.005 58.9442 101.887C59.349 101.767 59.7592 101.706 60.1747 101.706C60.4872 101.706 60.8121 101.747 61.1495 101.829C61.4904 101.911 61.8064 102.053 62.0976 102.255C62.3888 102.454 62.625 102.733 62.8061 103.091C62.9872 103.446 63.0777 103.897 63.0777 104.444V110H62.1296V108.706H62.071C61.9573 108.947 61.7887 109.181 61.5649 109.409C61.3412 109.636 61.0607 109.822 60.7233 109.968C60.386 110.114 59.99 110.186 59.5355 110.186ZM59.6633 109.318C60.1676 109.318 60.6044 109.206 60.9737 108.983C61.343 108.759 61.6271 108.462 61.826 108.093C62.0284 107.72 62.1296 107.31 62.1296 106.863V105.68C62.0585 105.748 61.9396 105.808 61.7727 105.861C61.6093 105.914 61.4193 105.962 61.2027 106.005C60.9897 106.044 60.7766 106.078 60.5635 106.106C60.3505 106.135 60.1587 106.159 59.9882 106.181C59.5266 106.238 59.1324 106.326 58.8057 106.447C58.479 106.568 58.2286 106.735 58.0546 106.948C57.8806 107.157 57.7936 107.427 57.7936 107.757C57.7936 108.255 57.9712 108.64 58.3263 108.913C58.6814 109.183 59.1271 109.318 59.6633 109.318ZM58.4595 100.689L57.6924 100.646C57.7102 100.174 57.8664 99.7869 58.1612 99.4851C58.4559 99.1832 58.8164 99.0323 59.2425 99.0323C59.4591 99.0323 59.6491 99.0714 59.8125 99.1495C59.9758 99.2241 60.1285 99.3111 60.2706 99.4105C60.4161 99.5064 60.5635 99.5916 60.7127 99.6662C60.8654 99.7408 61.0376 99.7781 61.2294 99.7781C61.446 99.7781 61.6342 99.6999 61.794 99.5437C61.9573 99.3874 62.0497 99.1939 62.071 98.9631L62.822 99.0483C62.7972 99.5241 62.6356 99.9059 62.3373 100.194C62.0426 100.478 61.6875 100.62 61.272 100.62C61.034 100.62 60.8334 100.582 60.6701 100.508C60.5103 100.43 60.3647 100.343 60.2333 100.247C60.1054 100.147 59.9669 100.06 59.8178 99.9858C59.6722 99.9112 59.4946 99.8739 59.2851 99.8739C59.0578 99.8739 58.8661 99.9521 58.7098 100.108C58.5571 100.265 58.4737 100.458 58.4595 100.689ZM68.78 110.17C68.0733 110.17 67.4483 109.991 66.905 109.632C66.3652 109.274 65.9426 108.778 65.6372 108.146C65.3318 107.511 65.1791 106.777 65.1791 105.946C65.1791 105.108 65.3318 104.371 65.6372 103.736C65.9426 103.097 66.3652 102.599 66.905 102.244C67.4483 101.886 68.0733 101.706 68.78 101.706C69.4866 101.706 70.1099 101.886 70.6496 102.244C71.1894 102.603 71.612 103.1 71.9174 103.736C72.2263 104.371 72.3808 105.108 72.3808 105.946C72.3808 106.777 72.2281 107.511 71.9227 108.146C71.6173 108.778 71.193 109.274 70.6496 109.632C70.1099 109.991 69.4866 110.17 68.78 110.17ZM68.78 109.302C69.3481 109.302 69.8293 109.15 70.2235 108.844C70.6177 108.539 70.916 108.132 71.1184 107.624C71.3244 107.116 71.4273 106.557 71.4273 105.946C71.4273 105.336 71.3244 104.775 71.1184 104.263C70.916 103.752 70.6177 103.342 70.2235 103.033C69.8293 102.724 69.3481 102.569 68.78 102.569C68.2153 102.569 67.7342 102.724 67.3364 103.033C66.9422 103.342 66.6422 103.752 66.4362 104.263C66.2338 104.775 66.1326 105.336 66.1326 105.946C66.1326 106.557 66.2338 107.116 66.4362 107.624C66.6422 108.132 66.9422 108.539 67.3364 108.844C67.7306 109.15 68.2118 109.302 68.78 109.302ZM78.681 113.068V101.818H79.6025V103.379H79.7144C79.828 103.134 79.9842 102.884 80.1831 102.628C80.382 102.369 80.6448 102.15 80.9715 101.973C81.3017 101.795 81.7172 101.706 82.2179 101.706C82.8926 101.706 83.4821 101.884 83.9864 102.239C84.4942 102.591 84.8884 103.084 85.1689 103.72C85.453 104.352 85.595 105.089 85.595 105.93C85.595 106.776 85.453 107.516 85.1689 108.152C84.8884 108.787 84.4942 109.283 83.9864 109.638C83.4821 109.993 82.8962 110.17 82.2286 110.17C81.735 110.17 81.3212 110.082 80.9874 109.904C80.6572 109.727 80.3891 109.508 80.1831 109.249C79.9807 108.986 79.8244 108.73 79.7144 108.482H79.6291V113.068H78.681ZM79.6185 105.914C79.6185 106.575 79.7161 107.161 79.9114 107.672C80.1103 108.18 80.3944 108.58 80.7637 108.871C81.1366 109.158 81.5876 109.302 82.1167 109.302C82.66 109.302 83.1181 109.153 83.491 108.855C83.8674 108.553 84.1533 108.146 84.3486 107.635C84.5475 107.124 84.6469 106.55 84.6469 105.914C84.6469 105.286 84.5492 104.719 84.3539 104.215C84.1622 103.711 83.8781 103.311 83.5016 103.017C83.1252 102.718 82.6636 102.569 82.1167 102.569C81.584 102.569 81.1313 102.713 80.7584 103.001C80.3855 103.285 80.1014 103.679 79.9061 104.183C79.7144 104.684 79.6185 105.261 79.6185 105.914ZM90.8552 110.17C90.1485 110.17 89.5235 109.991 88.9802 109.632C88.4404 109.274 88.0178 108.778 87.7124 108.146C87.407 107.511 87.2543 106.777 87.2543 105.946C87.2543 105.108 87.407 104.371 87.7124 103.736C88.0178 103.097 88.4404 102.599 88.9802 102.244C89.5235 101.886 90.1485 101.706 90.8552 101.706C91.5618 101.706 92.1851 101.886 92.7248 102.244C93.2646 102.603 93.6872 103.1 93.9926 103.736C94.3015 104.371 94.456 105.108 94.456 105.946C94.456 106.777 94.3033 107.511 93.9979 108.146C93.6925 108.778 93.2682 109.274 92.7248 109.632C92.1851 109.991 91.5618 110.17 90.8552 110.17ZM90.8552 109.302C91.4233 109.302 91.9045 109.15 92.2987 108.844C92.6929 108.539 92.9912 108.132 93.1936 107.624C93.3995 107.116 93.5025 106.557 93.5025 105.946C93.5025 105.336 93.3995 104.775 93.1936 104.263C92.9912 103.752 92.6929 103.342 92.2987 103.033C91.9045 102.724 91.4233 102.569 90.8552 102.569C90.2905 102.569 89.8093 102.724 89.4116 103.033C89.0174 103.342 88.7174 103.752 88.5114 104.263C88.309 104.775 88.2078 105.336 88.2078 105.946C88.2078 106.557 88.309 107.116 88.5114 107.624C88.7174 108.132 89.0174 108.539 89.4116 108.844C89.8058 109.15 90.287 109.302 90.8552 109.302ZM102.035 103.613L101.166 103.858C101.081 103.613 100.96 103.391 100.804 103.192C100.648 102.994 100.444 102.836 100.192 102.718C99.943 102.601 99.634 102.543 99.2647 102.543C98.7107 102.543 98.2562 102.674 97.9011 102.937C97.5459 103.2 97.3684 103.539 97.3684 103.954C97.3684 104.306 97.4891 104.592 97.7306 104.812C97.9756 105.028 98.3521 105.201 98.8599 105.328L100.096 105.632C100.781 105.799 101.294 106.064 101.635 106.426C101.98 106.788 102.152 107.243 102.152 107.789C102.152 108.251 102.024 108.661 101.768 109.02C101.513 109.379 101.156 109.661 100.698 109.867C100.243 110.069 99.7157 110.17 99.1155 110.17C98.3165 110.17 97.6578 109.991 97.1393 109.632C96.6209 109.27 96.2888 108.748 96.1432 108.066L97.0541 107.843C97.1713 108.329 97.4003 108.697 97.7413 108.945C98.0857 109.194 98.5385 109.318 99.0996 109.318C99.7281 109.318 100.231 109.178 100.607 108.897C100.983 108.613 101.172 108.258 101.172 107.832C101.172 107.502 101.062 107.225 100.841 107.001C100.621 106.774 100.287 106.607 99.84 106.5L98.503 106.181C97.7927 106.01 97.2672 105.74 96.9263 105.371C96.5854 105.002 96.4149 104.544 96.4149 103.997C96.4149 103.546 96.5374 103.15 96.7824 102.809C97.0275 102.464 97.3648 102.195 97.7945 101.999C98.2242 101.804 98.7143 101.706 99.2647 101.706C100.014 101.706 100.612 101.877 101.06 102.218C101.511 102.555 101.836 103.02 102.035 103.613ZM109.725 103.613L108.857 103.858C108.772 103.613 108.651 103.391 108.495 103.192C108.338 102.994 108.134 102.836 107.882 102.718C107.633 102.601 107.324 102.543 106.955 102.543C106.401 102.543 105.947 102.674 105.591 102.937C105.236 103.2 105.059 103.539 105.059 103.954C105.059 104.306 105.18 104.592 105.421 104.812C105.666 105.028 106.042 105.201 106.55 105.328L107.786 105.632C108.471 105.799 108.985 106.064 109.326 106.426C109.67 106.788 109.842 107.243 109.842 107.789C109.842 108.251 109.714 108.661 109.459 109.02C109.203 109.379 108.846 109.661 108.388 109.867C107.933 110.069 107.406 110.17 106.806 110.17C106.007 110.17 105.348 109.991 104.83 109.632C104.311 109.27 103.979 108.748 103.834 108.066L104.745 107.843C104.862 108.329 105.091 108.697 105.432 108.945C105.776 109.194 106.229 109.318 106.79 109.318C107.419 109.318 107.921 109.178 108.297 108.897C108.674 108.613 108.862 108.258 108.862 107.832C108.862 107.502 108.752 107.225 108.532 107.001C108.312 106.774 107.978 106.607 107.53 106.5L106.193 106.181C105.483 106.01 104.958 105.74 104.617 105.371C104.276 105.002 104.105 104.544 104.105 103.997C104.105 103.546 104.228 103.15 104.473 102.809C104.718 102.464 105.055 102.195 105.485 101.999C105.915 101.804 106.405 101.706 106.955 101.706C107.704 101.706 108.303 101.877 108.75 102.218C109.201 102.555 109.526 103.02 109.725 103.613ZM117.117 106.873V101.818H118.065V110H117.117V108.642H117.043C116.851 109.061 116.547 109.411 116.132 109.691C115.716 109.968 115.208 110.107 114.608 110.107C114.086 110.107 113.623 109.993 113.218 109.766C112.813 109.535 112.495 109.197 112.265 108.754C112.034 108.31 111.918 107.765 111.918 107.118V101.818H112.866V107.06C112.866 107.699 113.055 108.214 113.431 108.604C113.807 108.991 114.29 109.185 114.88 109.185C115.249 109.185 115.604 109.096 115.945 108.919C116.286 108.741 116.567 108.482 116.787 108.141C117.007 107.797 117.117 107.374 117.117 106.873ZM120.586 110V101.818H121.54V110H120.586ZM121.071 100.412C120.876 100.412 120.709 100.346 120.57 100.215C120.432 100.08 120.362 99.9183 120.362 99.7301C120.362 99.5419 120.432 99.3821 120.57 99.2507C120.709 99.1158 120.876 99.0483 121.071 99.0483C121.266 99.0483 121.433 99.1158 121.572 99.2507C121.71 99.3821 121.779 99.5419 121.779 99.7301C121.779 99.9183 121.71 100.08 121.572 100.215C121.433 100.346 121.266 100.412 121.071 100.412ZM128.277 110V101.818H129.23V110H128.277ZM128.761 100.412C128.566 100.412 128.399 100.346 128.261 100.215C128.122 100.08 128.053 99.9183 128.053 99.7301C128.053 99.5419 128.122 99.3821 128.261 99.2507C128.399 99.1158 128.566 99.0483 128.761 99.0483C128.957 99.0483 129.124 99.1158 129.262 99.2507C129.401 99.3821 129.47 99.5419 129.47 99.7301C129.47 99.9183 129.401 100.08 129.262 100.215C129.124 100.346 128.957 100.412 128.761 100.412ZM134.96 101.818V102.644L131.056 102.644V101.818L134.96 101.818ZM132.276 99.858H133.229V107.864C133.229 108.205 133.288 108.473 133.405 108.668C133.522 108.86 133.675 108.997 133.863 109.078C134.051 109.157 134.252 109.196 134.465 109.196C134.589 109.196 134.696 109.189 134.784 109.174C134.873 109.157 134.951 109.139 135.019 109.121L135.221 109.979C135.129 110.014 135.015 110.046 134.88 110.075C134.745 110.107 134.579 110.123 134.38 110.123C134.032 110.123 133.696 110.046 133.373 109.893C133.053 109.741 132.791 109.513 132.585 109.212C132.379 108.91 132.276 108.535 132.276 108.088V99.858ZM140.334 110.17C139.57 110.17 138.91 109.993 138.352 109.638C137.795 109.279 137.363 108.784 137.058 108.152C136.756 107.516 136.605 106.784 136.605 105.957C136.605 105.133 136.756 104.402 137.058 103.762C137.363 103.12 137.784 102.617 138.32 102.255C138.86 101.889 139.483 101.706 140.19 101.706C140.634 101.706 141.062 101.788 141.473 101.951C141.885 102.111 142.255 102.358 142.581 102.692C142.912 103.022 143.173 103.439 143.364 103.944C143.556 104.444 143.652 105.037 143.652 105.723V106.191H137.26V105.355H142.683C142.683 104.83 142.576 104.357 142.363 103.938C142.154 103.516 141.861 103.182 141.484 102.937C141.111 102.692 140.68 102.569 140.19 102.569C139.671 102.569 139.215 102.708 138.821 102.985C138.427 103.262 138.118 103.627 137.894 104.082C137.674 104.537 137.562 105.034 137.558 105.574V106.074C137.558 106.724 137.67 107.292 137.894 107.779C138.121 108.262 138.443 108.636 138.858 108.903C139.274 109.169 139.765 109.302 140.334 109.302C140.721 109.302 141.06 109.242 141.351 109.121C141.646 109 141.893 108.839 142.091 108.636C142.294 108.43 142.447 108.205 142.549 107.96L143.45 108.253C143.325 108.597 143.121 108.915 142.837 109.206C142.557 109.498 142.205 109.732 141.782 109.909C141.363 110.083 140.88 110.17 140.334 110.17ZM146.69 104.886V110H145.742V101.818H146.663V103.102H146.748C146.94 102.683 147.238 102.347 147.643 102.095C148.052 101.839 148.556 101.712 149.156 101.712C149.706 101.712 150.189 101.827 150.605 102.058C151.024 102.285 151.349 102.621 151.58 103.065C151.814 103.509 151.931 104.054 151.931 104.7V110H150.983V104.759C150.983 104.087 150.795 103.556 150.418 103.166C150.045 102.775 149.545 102.58 148.916 102.58C148.487 102.58 148.105 102.672 147.771 102.857C147.437 103.042 147.173 103.308 146.977 103.656C146.786 104 146.69 104.411 146.69 104.886ZM159.925 103.613L159.057 103.858C158.972 103.613 158.851 103.391 158.695 103.192C158.538 102.994 158.334 102.836 158.082 102.718C157.834 102.601 157.525 102.543 157.155 102.543C156.601 102.543 156.147 102.674 155.792 102.937C155.437 103.2 155.259 103.539 155.259 103.954C155.259 104.306 155.38 104.592 155.621 104.812C155.866 105.028 156.243 105.201 156.75 105.328L157.986 105.632C158.672 105.799 159.185 106.064 159.526 106.426C159.87 106.788 160.042 107.243 160.042 107.789C160.042 108.251 159.915 108.661 159.659 109.02C159.403 109.379 159.046 109.661 158.588 109.867C158.134 110.069 157.606 110.17 157.006 110.17C156.207 110.17 155.548 109.991 155.03 109.632C154.511 109.27 154.179 108.748 154.034 108.066L154.945 107.843C155.062 108.329 155.291 108.697 155.632 108.945C155.976 109.194 156.429 109.318 156.99 109.318C157.619 109.318 158.121 109.178 158.498 108.897C158.874 108.613 159.062 108.258 159.062 107.832C159.062 107.502 158.952 107.225 158.732 107.001C158.512 106.774 158.178 106.607 157.731 106.5L156.394 106.181C155.683 106.01 155.158 105.74 154.817 105.371C154.476 105.002 154.306 104.544 154.306 103.997C154.306 103.546 154.428 103.15 154.673 102.809C154.918 102.464 155.255 102.195 155.685 101.999C156.115 101.804 156.605 101.706 157.155 101.706C157.905 101.706 158.503 101.877 158.95 102.218C159.401 102.555 159.726 103.02 159.925 103.613ZM167.285 104.886V110H166.337V101.818H167.259V103.102H167.344C167.536 102.683 167.834 102.347 168.239 102.095C168.647 101.839 169.152 101.712 169.752 101.712C170.302 101.712 170.785 101.827 171.201 102.058C171.62 102.285 171.944 102.621 172.175 103.065C172.41 103.509 172.527 104.054 172.527 104.7V110H171.579V104.759C171.579 104.087 171.39 103.556 171.014 103.166C170.641 102.775 170.14 102.58 169.512 102.58C169.082 102.58 168.701 102.672 168.367 102.857C168.033 103.042 167.768 103.308 167.573 103.656C167.381 104 167.285 104.411 167.285 104.886ZM178.204 110.17C177.497 110.17 176.872 109.991 176.329 109.632C175.789 109.274 175.366 108.778 175.061 108.146C174.756 107.511 174.603 106.777 174.603 105.946C174.603 105.108 174.756 104.371 175.061 103.736C175.366 103.097 175.789 102.599 176.329 102.244C176.872 101.886 177.497 101.706 178.204 101.706C178.91 101.706 179.534 101.886 180.073 102.244C180.613 102.603 181.036 103.1 181.341 103.736C181.65 104.371 181.805 105.108 181.805 105.946C181.805 106.777 181.652 107.511 181.347 108.146C181.041 108.778 180.617 109.274 180.073 109.632C179.534 109.991 178.91 110.17 178.204 110.17ZM178.204 109.302C178.772 109.302 179.253 109.15 179.647 108.844C180.042 108.539 180.34 108.132 180.542 107.624C180.748 107.116 180.851 106.557 180.851 105.946C180.851 105.336 180.748 104.775 180.542 104.263C180.34 103.752 180.042 103.342 179.647 103.033C179.253 102.724 178.772 102.569 178.204 102.569C177.639 102.569 177.158 102.724 176.76 103.033C176.366 103.342 176.066 103.752 175.86 104.263C175.658 104.775 175.556 105.336 175.556 105.946C175.556 106.557 175.658 107.116 175.86 107.624C176.066 108.132 176.366 108.539 176.76 108.844C177.154 109.15 177.636 109.302 178.204 109.302ZM193.602 103.613L192.734 103.858C192.648 103.613 192.528 103.391 192.371 103.192C192.215 102.994 192.011 102.836 191.759 102.718C191.51 102.601 191.201 102.543 190.832 102.543C190.278 102.543 189.824 102.674 189.468 102.937C189.113 103.2 188.936 103.539 188.936 103.954C188.936 104.306 189.057 104.592 189.298 104.812C189.543 105.028 189.919 105.201 190.427 105.328L191.663 105.632C192.348 105.799 192.862 106.064 193.202 106.426C193.547 106.788 193.719 107.243 193.719 107.789C193.719 108.251 193.591 108.661 193.336 109.02C193.08 109.379 192.723 109.661 192.265 109.867C191.81 110.069 191.283 110.17 190.683 110.17C189.884 110.17 189.225 109.991 188.707 109.632C188.188 109.27 187.856 108.748 187.711 108.066L188.621 107.843C188.739 108.329 188.968 108.697 189.309 108.945C189.653 109.194 190.106 109.318 190.667 109.318C191.295 109.318 191.798 109.178 192.174 108.897C192.551 108.613 192.739 108.258 192.739 107.832C192.739 107.502 192.629 107.225 192.409 107.001C192.189 106.774 191.855 106.607 191.407 106.5L190.07 106.181C189.36 106.01 188.835 105.74 188.494 105.371C188.153 105.002 187.982 104.544 187.982 103.997C187.982 103.546 188.105 103.15 188.35 102.809C188.595 102.464 188.932 102.195 189.362 101.999C189.792 101.804 190.282 101.706 190.832 101.706C191.581 101.706 192.18 101.877 192.627 102.218C193.078 102.555 193.403 103.02 193.602 103.613ZM199.103 110.17C198.34 110.17 197.679 109.993 197.122 109.638C196.564 109.279 196.133 108.784 195.827 108.152C195.525 107.516 195.374 106.784 195.374 105.957C195.374 105.133 195.525 104.402 195.827 103.762C196.133 103.12 196.553 102.617 197.09 102.255C197.629 101.889 198.253 101.706 198.959 101.706C199.403 101.706 199.831 101.788 200.243 101.951C200.655 102.111 201.024 102.358 201.351 102.692C201.681 103.022 201.942 103.439 202.134 103.944C202.326 104.444 202.422 105.037 202.422 105.723V106.191H196.03V105.355H201.452C201.452 104.83 201.346 104.357 201.133 103.938C200.923 103.516 200.63 103.182 200.254 102.937C199.881 102.692 199.449 102.569 198.959 102.569C198.441 102.569 197.985 102.708 197.59 102.985C197.196 103.262 196.887 103.627 196.663 104.082C196.443 104.537 196.331 105.034 196.328 105.574V106.074C196.328 106.724 196.44 107.292 196.663 107.779C196.891 108.262 197.212 108.636 197.628 108.903C198.043 109.169 198.535 109.302 199.103 109.302C199.49 109.302 199.829 109.242 200.121 109.121C200.415 109 200.662 108.839 200.861 108.636C201.063 108.43 201.216 108.205 201.319 107.96L202.219 108.253C202.095 108.597 201.891 108.915 201.607 109.206C201.326 109.498 200.975 109.732 200.552 109.909C200.133 110.083 199.65 110.17 199.103 110.17ZM209.71 106.873V101.818H210.658V110H209.71V108.642H209.635C209.444 109.061 209.14 109.411 208.724 109.691C208.309 109.968 207.801 110.107 207.201 110.107C206.679 110.107 206.216 109.993 205.811 109.766C205.406 109.535 205.088 109.197 204.857 108.754C204.626 108.31 204.511 107.765 204.511 107.118V101.818H205.459V107.06C205.459 107.699 205.647 108.214 206.024 108.604C206.4 108.991 206.883 109.185 207.473 109.185C207.842 109.185 208.197 109.096 208.538 108.919C208.879 108.741 209.159 108.482 209.38 108.141C209.6 107.797 209.71 107.374 209.71 106.873ZM42.4581 128.17C41.7265 128.17 41.0891 127.988 40.5458 127.622C40.006 127.256 39.587 126.755 39.2887 126.12C38.9904 125.484 38.8412 124.76 38.8412 123.946C38.8412 123.126 38.9921 122.396 39.294 121.757C39.5994 121.118 40.022 120.617 40.5617 120.255C41.1015 119.889 41.7283 119.706 42.4421 119.706C42.9889 119.706 43.4843 119.813 43.9282 120.026C44.3721 120.235 44.7379 120.532 45.0255 120.915C45.3167 121.295 45.4996 121.739 45.5742 122.247H44.6154C44.5159 121.786 44.2762 121.391 43.8963 121.065C43.5198 120.734 43.0404 120.569 42.4581 120.569C41.936 120.569 41.4744 120.711 41.0731 120.995C40.6718 121.276 40.3576 121.668 40.1303 122.173C39.9066 122.673 39.7947 123.254 39.7947 123.914C39.7947 124.578 39.9048 125.166 40.125 125.678C40.3451 126.185 40.6541 126.583 41.0518 126.871C41.4531 127.158 41.9218 127.302 42.4581 127.302C42.8203 127.302 43.1505 127.235 43.4488 127.1C43.7507 126.961 44.0028 126.766 44.2052 126.514C44.4112 126.262 44.5497 125.962 44.6207 125.614H45.5795C45.5085 126.107 45.3327 126.548 45.0522 126.935C44.7752 127.318 44.4147 127.62 43.9708 127.84C43.5305 128.06 43.0262 128.17 42.4581 128.17ZM49.8968 128.186C49.4032 128.186 48.9522 128.091 48.5438 127.899C48.1354 127.703 47.8105 127.423 47.569 127.057C47.3275 126.688 47.2068 126.24 47.2068 125.715C47.2068 125.31 47.2832 124.969 47.4359 124.692C47.5886 124.415 47.8052 124.188 48.0857 124.01C48.3663 123.833 48.6983 123.692 49.0818 123.589C49.4653 123.487 49.8879 123.407 50.3496 123.35C50.8077 123.293 51.1947 123.243 51.5108 123.201C51.8304 123.158 52.0736 123.091 52.2405 122.998C52.4074 122.906 52.4909 122.757 52.4909 122.551V122.359C52.4909 121.801 52.324 121.363 51.9902 121.043C51.6599 120.72 51.1841 120.559 50.5626 120.559C49.9731 120.559 49.492 120.688 49.1191 120.947C48.7498 121.207 48.4905 121.512 48.3414 121.864L47.4412 121.539C47.6258 121.091 47.8815 120.734 48.2082 120.468C48.5349 120.198 48.9007 120.005 49.3055 119.887C49.7104 119.767 50.1205 119.706 50.536 119.706C50.8485 119.706 51.1734 119.747 51.5108 119.829C51.8517 119.911 52.1677 120.053 52.4589 120.255C52.7501 120.454 52.9863 120.733 53.1674 121.091C53.3485 121.446 53.4391 121.897 53.4391 122.444V128H52.4909V126.706H52.4323C52.3187 126.947 52.15 127.181 51.9263 127.409C51.7025 127.636 51.422 127.822 51.0847 127.968C50.7473 128.114 50.3513 128.186 49.8968 128.186ZM50.0246 127.318C50.5289 127.318 50.9657 127.206 51.335 126.983C51.7043 126.759 51.9884 126.462 52.1873 126.093C52.3897 125.72 52.4909 125.31 52.4909 124.863V123.68C52.4199 123.748 52.3009 123.808 52.134 123.861C51.9707 123.914 51.7807 123.962 51.5641 124.005C51.351 124.044 51.1379 124.078 50.9248 124.106C50.7118 124.135 50.52 124.159 50.3496 124.181C49.8879 124.238 49.4937 124.326 49.167 124.447C48.8403 124.568 48.59 124.735 48.416 124.948C48.242 125.157 48.155 125.427 48.155 125.757C48.155 126.255 48.3325 126.64 48.6876 126.913C49.0427 127.183 49.4884 127.318 50.0246 127.318ZM55.9612 128L55.9612 119.818H56.8828V121.075H56.952C57.1154 120.663 57.3995 120.331 57.8043 120.079C58.2127 119.824 58.6743 119.696 59.1892 119.696C59.2674 119.696 59.3544 119.697 59.4502 119.701C59.5461 119.705 59.626 119.708 59.6899 119.712V120.676C59.6473 120.669 59.5728 120.658 59.4662 120.644C59.3597 120.63 59.2443 120.623 59.12 120.623C58.6938 120.623 58.3139 120.713 57.9801 120.894C57.6498 121.072 57.3888 121.319 57.197 121.635C57.0053 121.951 56.9094 122.311 56.9094 122.716V128H55.9612ZM61.3079 128L61.3079 119.818H62.2294V121.075H62.2987C62.462 120.663 62.7461 120.331 63.151 120.079C63.5593 119.824 64.021 119.696 64.5359 119.696C64.614 119.696 64.701 119.697 64.7969 119.701C64.8928 119.705 64.9727 119.708 65.0366 119.712V120.676C64.994 120.669 64.9194 120.658 64.8129 120.644C64.7064 120.63 64.591 120.623 64.4667 120.623C64.0405 120.623 63.6606 120.713 63.3267 120.894C62.9965 121.072 62.7355 121.319 62.5437 121.635C62.352 121.951 62.2561 122.311 62.2561 122.716V128H61.3079ZM66.6653 128V119.818H67.6187V128H66.6653ZM67.15 118.412C66.9547 118.412 66.7878 118.346 66.6493 118.215C66.5108 118.08 66.4415 117.918 66.4415 117.73C66.4415 117.542 66.5108 117.382 66.6493 117.251C66.7878 117.116 66.9547 117.048 67.15 117.048C67.3453 117.048 67.5122 117.116 67.6507 117.251C67.7892 117.382 67.8584 117.542 67.8584 117.73C67.8584 117.918 67.7892 118.08 67.6507 118.215C67.5122 118.346 67.3453 118.412 67.15 118.412ZM71.0744 122.886V128H70.1263V119.818H71.0478V121.102H71.133C71.3248 120.683 71.6231 120.347 72.0279 120.095C72.4363 119.839 72.9406 119.712 73.5407 119.712C74.0911 119.712 74.5741 119.827 74.9896 120.058C75.4086 120.285 75.7335 120.621 75.9644 121.065C76.1987 121.509 76.3159 122.054 76.3159 122.7V128H75.3678V122.759C75.3678 122.087 75.1796 121.556 74.8031 121.166C74.4303 120.775 73.9296 120.58 73.301 120.58C72.8713 120.58 72.4896 120.672 72.1558 120.857C71.822 121.042 71.5574 121.308 71.3621 121.656C71.1703 122 71.0744 122.411 71.0744 122.886ZM79.761 122.886V128H78.8128V117.091H79.761V121.102H79.8462C80.038 120.679 80.3345 120.342 80.7358 120.09C81.1406 119.838 81.6519 119.712 82.2698 119.712C82.8238 119.712 83.3103 119.825 83.7294 120.053C84.1484 120.28 84.4751 120.615 84.7095 121.059C84.9438 121.503 85.061 122.05 85.061 122.7V128H84.1076V122.759C84.1076 122.084 83.9193 121.553 83.5429 121.166C83.1701 120.775 82.6658 120.58 82.0301 120.58C81.5934 120.58 81.2045 120.672 80.8636 120.857C80.5227 121.042 80.2528 121.308 80.0539 121.656C79.8586 122 79.761 122.411 79.761 122.886ZM90.738 128.17C90.0313 128.17 89.4063 127.991 88.863 127.632C88.3232 127.274 87.9006 126.778 87.5952 126.146C87.2898 125.511 87.1371 124.777 87.1371 123.946C87.1371 123.108 87.2898 122.371 87.5952 121.736C87.9006 121.097 88.3232 120.599 88.863 120.244C89.4063 119.886 90.0313 119.706 90.738 119.706C91.4446 119.706 92.0679 119.886 92.6076 120.244C93.1474 120.603 93.57 121.1 93.8754 121.736C94.1843 122.371 94.3388 123.108 94.3388 123.946C94.3388 124.777 94.1861 125.511 93.8807 126.146C93.5753 126.778 93.151 127.274 92.6076 127.632C92.0679 127.991 91.4446 128.17 90.738 128.17ZM90.738 127.302C91.3062 127.302 91.7873 127.15 92.1815 126.844C92.5757 126.539 92.874 126.132 93.0764 125.624C93.2824 125.116 93.3853 124.557 93.3853 123.946C93.3853 123.336 93.2824 122.775 93.0764 122.263C92.874 121.752 92.5757 121.342 92.1815 121.033C91.7873 120.724 91.3062 120.569 90.738 120.569C90.1733 120.569 89.6922 120.724 89.2944 121.033C88.9003 121.342 88.6002 121.752 88.3942 122.263C88.1918 122.775 88.0906 123.336 88.0906 123.946C88.0906 124.557 88.1918 125.116 88.3942 125.624C88.6002 126.132 88.9003 126.539 89.2944 126.844C89.6886 127.15 90.1698 127.302 90.738 127.302ZM103.585 128.17C102.913 128.17 102.326 127.993 101.822 127.638C101.317 127.283 100.923 126.787 100.639 126.152C100.358 125.516 100.218 124.776 100.218 123.93C100.218 123.089 100.358 122.352 100.639 121.72C100.923 121.084 101.319 120.591 101.827 120.239C102.335 119.884 102.926 119.706 103.601 119.706C104.098 119.706 104.511 119.795 104.842 119.973C105.172 120.147 105.437 120.363 105.635 120.623C105.834 120.882 105.989 121.134 106.099 121.379H106.184V117.091H107.138V128H106.211V126.482H106.099C105.989 126.73 105.833 126.986 105.63 127.249C105.428 127.508 105.16 127.727 104.826 127.904C104.496 128.082 104.082 128.17 103.585 128.17ZM103.697 127.302C104.226 127.302 104.677 127.158 105.049 126.871C105.422 126.58 105.706 126.18 105.902 125.672C106.101 125.161 106.2 124.575 106.2 123.914C106.2 123.261 106.102 122.684 105.907 122.183C105.712 121.679 105.428 121.285 105.055 121.001C104.682 120.713 104.229 120.569 103.697 120.569C103.15 120.569 102.688 120.718 102.312 121.017C101.939 121.311 101.655 121.711 101.459 122.215C101.268 122.719 101.172 123.286 101.172 123.914C101.172 124.55 101.269 125.124 101.465 125.635C101.66 126.146 101.944 126.553 102.317 126.855C102.693 127.153 103.153 127.302 103.697 127.302ZM113.146 128.17C112.383 128.17 111.722 127.993 111.165 127.638C110.607 127.279 110.176 126.784 109.87 126.152C109.568 125.516 109.417 124.784 109.417 123.957C109.417 123.133 109.568 122.402 109.87 121.762C110.176 121.12 110.596 120.617 111.133 120.255C111.672 119.889 112.296 119.706 113.002 119.706C113.446 119.706 113.874 119.788 114.286 119.951C114.698 120.111 115.067 120.358 115.394 120.692C115.724 121.022 115.985 121.439 116.177 121.944C116.369 122.444 116.465 123.037 116.465 123.723V124.191H110.073V123.355H115.495C115.495 122.83 115.389 122.357 115.176 121.938C114.966 121.516 114.673 121.182 114.297 120.937C113.924 120.692 113.492 120.569 113.002 120.569C112.484 120.569 112.027 120.708 111.633 120.985C111.239 121.262 110.93 121.627 110.706 122.082C110.486 122.537 110.374 123.034 110.371 123.574V124.074C110.371 124.724 110.483 125.292 110.706 125.779C110.934 126.262 111.255 126.636 111.671 126.903C112.086 127.169 112.578 127.302 113.146 127.302C113.533 127.302 113.872 127.242 114.163 127.121C114.458 127 114.705 126.839 114.904 126.636C115.106 126.43 115.259 126.205 115.362 125.96L116.262 126.253C116.138 126.597 115.934 126.915 115.65 127.206C115.369 127.498 115.018 127.732 114.595 127.909C114.176 128.083 113.693 128.17 113.146 128.17ZM125.969 128.17C125.237 128.17 124.6 127.988 124.057 127.622C123.517 127.256 123.098 126.755 122.799 126.12C122.501 125.484 122.352 124.76 122.352 123.946C122.352 123.126 122.503 122.396 122.805 121.757C123.11 121.118 123.533 120.617 124.072 120.255C124.612 119.889 125.239 119.706 125.953 119.706C126.5 119.706 126.995 119.813 127.439 120.026C127.883 120.235 128.249 120.532 128.536 120.915C128.827 121.295 129.01 121.739 129.085 122.247H128.126C128.027 121.786 127.787 121.391 127.407 121.065C127.031 120.734 126.551 120.569 125.969 120.569C125.447 120.569 124.985 120.711 124.584 120.995C124.183 121.276 123.868 121.668 123.641 122.173C123.417 122.673 123.305 123.254 123.305 123.914C123.305 124.578 123.416 125.166 123.636 125.678C123.856 126.185 124.165 126.583 124.563 126.871C124.964 127.158 125.433 127.302 125.969 127.302C126.331 127.302 126.661 127.235 126.96 127.1C127.261 126.961 127.514 126.766 127.716 126.514C127.922 126.262 128.06 125.962 128.131 125.614H129.09C129.019 126.107 128.843 126.548 128.563 126.935C128.286 127.318 127.925 127.62 127.482 127.84C127.041 128.06 126.537 128.17 125.969 128.17ZM134.302 128.17C133.596 128.17 132.971 127.991 132.427 127.632C131.888 127.274 131.465 126.778 131.16 126.146C130.854 125.511 130.702 124.777 130.702 123.946C130.702 123.108 130.854 122.371 131.16 121.736C131.465 121.097 131.888 120.599 132.427 120.244C132.971 119.886 133.596 119.706 134.302 119.706C135.009 119.706 135.632 119.886 136.172 120.244C136.712 120.603 137.134 121.1 137.44 121.736C137.749 122.371 137.903 123.108 137.903 123.946C137.903 124.777 137.751 125.511 137.445 126.146C137.14 126.778 136.715 127.274 136.172 127.632C135.632 127.991 135.009 128.17 134.302 128.17ZM134.302 127.302C134.871 127.302 135.352 127.15 135.746 126.844C136.14 126.539 136.438 126.132 136.641 125.624C136.847 125.116 136.95 124.557 136.95 123.946C136.95 123.336 136.847 122.775 136.641 122.263C136.438 121.752 136.14 121.342 135.746 121.033C135.352 120.724 134.871 120.569 134.302 120.569C133.738 120.569 133.257 120.724 132.859 121.033C132.465 121.342 132.165 121.752 131.959 122.263C131.756 122.775 131.655 123.336 131.655 123.946C131.655 124.557 131.756 125.116 131.959 125.624C132.165 126.132 132.465 126.539 132.859 126.844C133.253 127.15 133.734 127.302 134.302 127.302ZM139.985 128V119.818H140.906V121.075H140.991C141.155 120.653 141.426 120.321 141.806 120.079C142.19 119.834 142.65 119.712 143.186 119.712C143.751 119.712 144.214 119.845 144.576 120.111C144.942 120.374 145.216 120.736 145.397 121.198H145.466C145.651 120.743 145.951 120.383 146.366 120.116C146.785 119.847 147.293 119.712 147.89 119.712C148.649 119.712 149.25 119.951 149.69 120.431C150.13 120.907 150.35 121.603 150.35 122.519V128H149.402V122.519C149.402 121.873 149.237 121.388 148.907 121.065C148.577 120.741 148.142 120.58 147.602 120.58C146.977 120.58 146.496 120.772 146.158 121.155C145.821 121.539 145.652 122.025 145.652 122.615V128H144.683V122.434C144.683 121.88 144.528 121.432 144.219 121.091C143.91 120.75 143.475 120.58 142.914 120.58C142.538 120.58 142.199 120.672 141.897 120.857C141.599 121.042 141.363 121.299 141.189 121.629C141.018 121.956 140.933 122.332 140.933 122.759V128H139.985ZM152.861 131.068V119.818H153.782V121.379H153.894C154.008 121.134 154.164 120.884 154.363 120.628C154.562 120.369 154.824 120.15 155.151 119.973C155.481 119.795 155.897 119.706 156.398 119.706C157.072 119.706 157.662 119.884 158.166 120.239C158.674 120.591 159.068 121.084 159.349 121.72C159.633 122.352 159.775 123.089 159.775 123.93C159.775 124.776 159.633 125.516 159.349 126.152C159.068 126.787 158.674 127.283 158.166 127.638C157.662 127.993 157.076 128.17 156.408 128.17C155.915 128.17 155.501 128.082 155.167 127.904C154.837 127.727 154.569 127.508 154.363 127.249C154.16 126.986 154.004 126.73 153.894 126.482H153.809V131.068H152.861ZM153.798 123.914C153.798 124.575 153.896 125.161 154.091 125.672C154.29 126.18 154.574 126.58 154.943 126.871C155.316 127.158 155.767 127.302 156.296 127.302C156.84 127.302 157.298 127.153 157.671 126.855C158.047 126.553 158.333 126.146 158.528 125.635C158.727 125.124 158.827 124.55 158.827 123.914C158.827 123.286 158.729 122.719 158.534 122.215C158.342 121.711 158.058 121.311 157.681 121.017C157.305 120.718 156.843 120.569 156.296 120.569C155.764 120.569 155.311 120.713 154.938 121.001C154.565 121.285 154.281 121.679 154.086 122.183C153.894 122.684 153.798 123.261 153.798 123.914ZM161.855 128V119.818H162.776V121.075H162.846C163.009 120.663 163.293 120.331 163.698 120.079C164.106 119.824 164.568 119.696 165.083 119.696C165.161 119.696 165.248 119.697 165.344 119.701C165.44 119.705 165.52 119.708 165.583 119.712V120.676C165.541 120.669 165.466 120.658 165.36 120.644C165.253 120.63 165.138 120.623 165.014 120.623C164.587 120.623 164.207 120.713 163.874 120.894C163.543 121.072 163.282 121.319 163.091 121.635C162.899 121.951 162.803 122.311 162.803 122.716V128H161.855ZM169.487 128.186C168.993 128.186 168.542 128.091 168.134 127.899C167.725 127.703 167.4 127.423 167.159 127.057C166.917 126.688 166.797 126.24 166.797 125.715C166.797 125.31 166.873 124.969 167.026 124.692C167.178 124.415 167.395 124.188 167.676 124.01C167.956 123.833 168.288 123.692 168.672 123.589C169.055 123.487 169.478 123.407 169.939 123.35C170.398 123.293 170.785 123.243 171.101 123.201C171.42 123.158 171.663 123.091 171.83 122.998C171.997 122.906 172.081 122.757 172.081 122.551V122.359C172.081 121.801 171.914 121.363 171.58 121.043C171.25 120.72 170.774 120.559 170.152 120.559C169.563 120.559 169.082 120.688 168.709 120.947C168.34 121.207 168.08 121.512 167.931 121.864L167.031 121.539C167.216 121.091 167.471 120.734 167.798 120.468C168.125 120.198 168.491 120.005 168.895 119.887C169.3 119.767 169.71 119.706 170.126 119.706C170.438 119.706 170.763 119.747 171.101 119.829C171.442 119.911 171.758 120.053 172.049 120.255C172.34 120.454 172.576 120.733 172.757 121.091C172.938 121.446 173.029 121.897 173.029 122.444V128H172.081V126.706H172.022C171.909 126.947 171.74 127.181 171.516 127.409C171.292 127.636 171.012 127.822 170.674 127.968C170.337 128.114 169.941 128.186 169.487 128.186ZM169.614 127.318C170.119 127.318 170.556 127.206 170.925 126.983C171.294 126.759 171.578 126.462 171.777 126.093C171.98 125.72 172.081 125.31 172.081 124.863V123.68C172.01 123.748 171.891 123.808 171.724 123.861C171.561 123.914 171.371 123.962 171.154 124.005C170.941 124.044 170.728 124.078 170.515 124.106C170.302 124.135 170.11 124.159 169.939 124.181C169.478 124.238 169.084 124.326 168.757 124.447C168.43 124.568 168.18 124.735 168.006 124.948C167.832 125.157 167.745 125.427 167.745 125.757C167.745 126.255 167.922 126.64 168.277 126.913C168.633 127.183 169.078 127.318 169.614 127.318ZM181.048 121.613L180.18 121.858C180.095 121.613 179.974 121.391 179.818 121.192C179.662 120.994 179.457 120.836 179.205 120.718C178.957 120.601 178.648 120.543 178.278 120.543C177.724 120.543 177.27 120.674 176.915 120.937C176.56 121.2 176.382 121.539 176.382 121.954C176.382 122.306 176.503 122.592 176.744 122.812C176.989 123.028 177.366 123.201 177.874 123.328L179.109 123.632C179.795 123.799 180.308 124.064 180.649 124.426C180.993 124.788 181.165 125.243 181.165 125.789C181.165 126.251 181.038 126.661 180.782 127.02C180.526 127.379 180.169 127.661 179.711 127.867C179.257 128.069 178.729 128.17 178.129 128.17C177.33 128.17 176.671 127.991 176.153 127.632C175.635 127.27 175.303 126.748 175.157 126.066L176.068 125.843C176.185 126.329 176.414 126.697 176.755 126.945C177.099 127.194 177.552 127.318 178.113 127.318C178.742 127.318 179.244 127.178 179.621 126.897C179.997 126.613 180.185 126.258 180.185 125.832C180.185 125.502 180.075 125.225 179.855 125.001C179.635 124.774 179.301 124.607 178.854 124.5L177.517 124.181C176.806 124.01 176.281 123.74 175.94 123.371C175.599 123.002 175.429 122.544 175.429 121.997C175.429 121.546 175.551 121.15 175.796 120.809C176.041 120.464 176.379 120.195 176.808 119.999C177.238 119.804 177.728 119.706 178.278 119.706C179.028 119.706 179.626 119.877 180.073 120.218C180.524 120.555 180.849 121.02 181.048 121.613Z" fill="#301E01"/>
</svg>
